<mxfile host="65bd71144e">
    <diagram id="rGwt7ImJRkVZdIHSdzus" name="Página-1">
        <mxGraphModel dx="459" dy="416" grid="1" gridSize="10" guides="1" tooltips="1" connect="1" arrows="1" fold="1" page="1" pageScale="1" pageWidth="827" pageHeight="1169" math="0" shadow="0">
            <root>
                <mxCell id="0"/>
                <mxCell id="1" parent="0"/>
                <mxCell id="2" value="Time" style="rounded=0;whiteSpace=wrap;html=1;fillColor=#d80073;fontColor=#ffffff;strokeColor=#A50040;" vertex="1" parent="1">
                    <mxGeometry x="120" y="160" width="110" height="20" as="geometry"/>
                </mxCell>
                <mxCell id="3" value="+ NomeTime&lt;br&gt;+Tecnico" style="rounded=0;whiteSpace=wrap;html=1;fillColor=#ffcccc;align=left;strokeColor=#36393d;" vertex="1" parent="1">
                    <mxGeometry x="120" y="180" width="110" height="60" as="geometry"/>
                </mxCell>
                <mxCell id="7" value="Atleta" style="rounded=0;whiteSpace=wrap;html=1;fillColor=#e51400;fontColor=#ffffff;strokeColor=#B20000;" vertex="1" parent="1">
                    <mxGeometry x="340" y="160" width="110" height="20" as="geometry"/>
                </mxCell>
                <mxCell id="13" style="edgeStyle=none;html=1;exitX=0;exitY=0.5;exitDx=0;exitDy=0;entryX=1;entryY=0.5;entryDx=0;entryDy=0;endArrow=diamondThin;endFill=0;" edge="1" parent="1" source="8" target="3">
                    <mxGeometry relative="1" as="geometry"/>
                </mxCell>
                <mxCell id="8" value="+ Nome&lt;br&gt;+ Idade&lt;br&gt;+ posicao" style="rounded=0;whiteSpace=wrap;html=1;fillColor=#ffcc99;align=left;strokeColor=#36393d;" vertex="1" parent="1">
                    <mxGeometry x="340" y="180" width="110" height="60" as="geometry"/>
                </mxCell>
                <mxCell id="9" value="Produtos" style="rounded=0;whiteSpace=wrap;html=1;fillColor=#647687;fontColor=#ffffff;strokeColor=#314354;" vertex="1" parent="1">
                    <mxGeometry x="200" y="330" width="110" height="20" as="geometry"/>
                </mxCell>
                <mxCell id="15" style="edgeStyle=none;html=1;exitX=1;exitY=0.5;exitDx=0;exitDy=0;fontSize=11;endArrow=diamondThin;endFill=0;" edge="1" parent="1" source="10">
                    <mxGeometry relative="1" as="geometry">
                        <mxPoint x="400" y="380.1379310344828" as="targetPoint"/>
                    </mxGeometry>
                </mxCell>
                <mxCell id="10" value="&lt;font size=&quot;1&quot;&gt;- codigo : int&lt;br&gt;- descProduto : String&lt;br&gt;- preço : float&lt;br&gt;- quantidade : int&lt;br&gt;&lt;/font&gt;" style="rounded=0;whiteSpace=wrap;html=1;fillColor=none;align=left;" vertex="1" parent="1">
                    <mxGeometry x="200" y="350" width="110" height="60" as="geometry"/>
                </mxCell>
                <mxCell id="14" value="+ ListaDados() : void" style="rounded=0;whiteSpace=wrap;html=1;fontSize=11;fillColor=#eeeeee;align=left;strokeColor=#36393d;" vertex="1" parent="1">
                    <mxGeometry x="200" y="410" width="110" height="20" as="geometry"/>
                </mxCell>
                <mxCell id="16" style="edgeStyle=none;html=1;exitX=1;exitY=0.5;exitDx=0;exitDy=0;fontSize=11;endArrow=diamondThin;endFill=0;" edge="1" source="17" parent="1">
                    <mxGeometry relative="1" as="geometry">
                        <mxPoint x="400" y="380.1379310344828" as="targetPoint"/>
                    </mxGeometry>
                </mxCell>
                <mxCell id="17" value="&lt;font size=&quot;1&quot;&gt;- codigo : int&lt;br&gt;- descProduto : String&lt;br&gt;- preço : float&lt;br&gt;- quantidade : int&lt;br&gt;&lt;/font&gt;" style="rounded=0;whiteSpace=wrap;html=1;fillColor=#eeeeee;align=left;strokeColor=#36393d;" vertex="1" parent="1">
                    <mxGeometry x="200" y="350" width="110" height="60" as="geometry"/>
                </mxCell>
                <mxCell id="18" value="Carrinhos" style="rounded=0;whiteSpace=wrap;html=1;fillColor=#008a00;fontColor=#ffffff;strokeColor=#005700;" vertex="1" parent="1">
                    <mxGeometry x="400" y="330" width="150" height="20" as="geometry"/>
                </mxCell>
                <mxCell id="21" value="&lt;font size=&quot;1&quot;&gt;-itens [ ] : Produtos&lt;br&gt;&lt;/font&gt;" style="rounded=0;whiteSpace=wrap;html=1;fillColor=#cdeb8b;align=left;strokeColor=#36393d;" vertex="1" parent="1">
                    <mxGeometry x="400" y="350" width="150" height="30" as="geometry"/>
                </mxCell>
                <mxCell id="22" value="&lt;font style=&quot;font-size: 10px;&quot;&gt;&amp;nbsp;+ ExibeCarrinho() : void&lt;br&gt;+ FecharCompra() : float&lt;br&gt;&lt;/font&gt;" style="rounded=0;whiteSpace=wrap;html=1;fontSize=11;fillColor=none;align=left;" vertex="1" parent="1">
                    <mxGeometry x="400" y="380" width="150" height="45" as="geometry"/>
                </mxCell>
                <mxCell id="23" value="&lt;font style=&quot;font-size: 10px;&quot;&gt;&amp;nbsp;+ ExibeCarrinho() : void&lt;br&gt;+ FecharCompra() : float&lt;br&gt;&lt;/font&gt;" style="rounded=0;whiteSpace=wrap;html=1;fontSize=11;fillColor=none;align=left;" vertex="1" parent="1">
                    <mxGeometry x="400" y="380" width="150" height="45" as="geometry"/>
                </mxCell>
                <mxCell id="24" value="&lt;font style=&quot;font-size: 10px;&quot;&gt;&amp;nbsp;+ ExibeCarrinho() : void&lt;br&gt;+ FecharCompra() : float&lt;br&gt;&lt;/font&gt;" style="rounded=0;whiteSpace=wrap;html=1;fontSize=11;fillColor=#cdeb8b;align=left;strokeColor=#36393d;" vertex="1" parent="1">
                    <mxGeometry x="400" y="380" width="150" height="45" as="geometry"/>
                </mxCell>
            </root>
        </mxGraphModel>
    </diagram>
</mxfile>